<svg width="113" height="76" viewBox="0 0 113 76" fill="none" xmlns="http://www.w3.org/2000/svg">
<mask id="path-1-outside-1_2004_32" maskUnits="userSpaceOnUse" x="0" y="0" width="113" height="76" fill="black">
<rect fill="white" width="113" height="76"/>
<path d="M93.336 5.16C98.904 5.16 102.936 6.792 105.432 10.056C107.992 13.32 108.312 17.256 106.392 21.864L100.248 36.36C98.904 39.496 96.728 42.376 93.72 45C90.712 47.56 87.288 49.544 83.448 50.952C82.808 51.208 82.584 51.56 82.776 52.008L89.208 66.312C89.592 67.208 89.4 68.104 88.632 69C87.864 69.832 86.904 70.248 85.752 70.248H63.672L56.952 53.736C56.568 53.288 56.152 53.064 55.704 53.064H38.424C37.848 53.064 37.464 53.32 37.272 53.832L32.28 65.64C31.832 66.6 31.032 67.432 29.88 68.136C28.792 68.84 27.64 69.192 26.424 69.192H7.896L29.688 17.736L29.784 5.16H93.336ZM82.392 24.36C82.776 23.464 82.712 22.728 82.2 22.152C81.752 21.512 80.984 21.192 79.896 21.192H41.016L49.368 25.32L44.376 37.032H73.176C74.264 37.032 75.288 36.744 76.248 36.168C77.272 35.528 77.976 34.76 78.36 33.864L82.392 24.36Z"/>
</mask>
<path d="M93.336 5.16C98.904 5.16 102.936 6.792 105.432 10.056C107.992 13.32 108.312 17.256 106.392 21.864L100.248 36.36C98.904 39.496 96.728 42.376 93.72 45C90.712 47.56 87.288 49.544 83.448 50.952C82.808 51.208 82.584 51.56 82.776 52.008L89.208 66.312C89.592 67.208 89.4 68.104 88.632 69C87.864 69.832 86.904 70.248 85.752 70.248H63.672L56.952 53.736C56.568 53.288 56.152 53.064 55.704 53.064H38.424C37.848 53.064 37.464 53.32 37.272 53.832L32.28 65.64C31.832 66.6 31.032 67.432 29.88 68.136C28.792 68.84 27.64 69.192 26.424 69.192H7.896L29.688 17.736L29.784 5.16H93.336ZM82.392 24.36C82.776 23.464 82.712 22.728 82.2 22.152C81.752 21.512 80.984 21.192 79.896 21.192H41.016L49.368 25.32L44.376 37.032H73.176C74.264 37.032 75.288 36.744 76.248 36.168C77.272 35.528 77.976 34.76 78.36 33.864L82.392 24.36Z" fill="white"/>
<path d="M105.432 10.056L101.46 13.0932L101.479 13.1176L101.498 13.1417L105.432 10.056ZM106.392 21.864L110.996 23.8152L111.002 23.8011L111.007 23.7871L106.392 21.864ZM100.248 36.36L104.844 38.3296L104.848 38.3204L104.852 38.3112L100.248 36.36ZM93.72 45L96.9606 48.8077L96.9838 48.7879L97.0068 48.7678L93.72 45ZM83.448 50.952L81.7267 46.2576L81.6585 46.2826L81.5911 46.3096L83.448 50.952ZM82.776 52.008L78.1803 53.9776L78.1977 54.0182L78.2158 54.0586L82.776 52.008ZM89.208 66.312L93.8037 64.3424L93.7863 64.3018L93.7682 64.2614L89.208 66.312ZM88.632 69L92.306 72.3914L92.3684 72.3238L92.4283 72.254L88.632 69ZM63.672 70.248L59.0408 72.1328L60.3087 75.248H63.672V70.248ZM56.952 53.736L61.5832 51.8512L61.2769 51.0988L60.7483 50.482L56.952 53.736ZM37.272 53.832L41.8774 55.779L41.9175 55.6841L41.9536 55.5876L37.272 53.832ZM32.28 65.64L36.8109 67.7544L36.8497 67.6714L36.8854 67.587L32.28 65.64ZM29.88 68.136L27.2728 63.8696L27.2178 63.9032L27.1637 63.9381L29.88 68.136ZM7.896 69.192L3.29188 67.2421L0.348549 74.192H7.896V69.192ZM29.688 17.736L34.2921 19.6859L34.6803 18.7694L34.6879 17.7742L29.688 17.736ZM29.784 5.16V0.159998H24.822L24.7841 5.12183L29.784 5.16ZM82.392 24.36L77.7963 22.3904L77.7927 22.3988L77.7891 22.4072L82.392 24.36ZM82.2 22.152L78.1039 25.0193L78.2702 25.257L78.4629 25.4738L82.2 22.152ZM41.016 21.192V16.192L38.8006 25.6744L41.016 21.192ZM49.368 25.32L53.9676 27.2805L55.821 22.9321L51.5834 20.8376L49.368 25.32ZM44.376 37.032L39.7764 35.0715L36.8096 42.032H44.376V37.032ZM76.248 36.168L78.8205 40.4555L78.8595 40.4321L78.898 40.408L76.248 36.168ZM78.36 33.864L82.9557 35.8336L82.9593 35.8252L82.9629 35.8167L78.36 33.864ZM93.336 5.16V10.16C97.9408 10.16 100.221 11.4722 101.46 13.0932L105.432 10.056L109.404 7.01875C105.651 2.11179 99.8672 0.159998 93.336 0.159998V5.16ZM105.432 10.056L101.498 13.1417C102.696 14.6691 103.169 16.5998 101.777 19.9409L106.392 21.864L111.007 23.7871C113.455 17.9122 113.288 11.9709 109.366 6.9703L105.432 10.056ZM106.392 21.864L101.788 19.9128L95.6444 34.4088L100.248 36.36L104.852 38.3112L110.996 23.8152L106.392 21.864ZM100.248 36.36L95.6523 34.3904C94.6503 36.7284 92.971 39.0183 90.4332 41.2322L93.72 45L97.0068 48.7678C100.485 45.7337 103.158 42.2636 104.844 38.3296L100.248 36.36ZM93.72 45L90.4794 41.1923C87.9374 43.3557 85.0318 45.0457 81.7267 46.2576L83.448 50.952L85.1693 55.6464C89.5442 54.0423 93.4866 51.7643 96.9606 48.8077L93.72 45ZM83.448 50.952L81.5911 46.3096C80.875 46.596 79.5168 47.2541 78.5817 48.7236C77.4235 50.5436 77.5598 52.5298 78.1803 53.9776L82.776 52.008L87.3717 50.0384C87.5543 50.4645 87.7375 51.1018 87.706 51.8898C87.6732 52.7102 87.4155 53.4682 87.0183 54.0924C86.3072 55.2099 85.381 55.564 85.3049 55.5944L83.448 50.952ZM82.776 52.008L78.2158 54.0586L84.6478 68.3626L89.208 66.312L93.7682 64.2614L87.3362 49.9574L82.776 52.008ZM89.208 66.312L84.6123 68.2816C84.4242 67.8427 84.328 67.2385 84.463 66.6083C84.5848 66.04 84.8293 65.7536 84.8357 65.746L88.632 69L92.4283 72.254C93.2027 71.3504 93.9272 70.168 94.241 68.7037C94.568 67.1775 94.3758 65.6773 93.8037 64.3424L89.208 66.312ZM88.632 69L84.958 65.6086C85.0072 65.5553 85.1376 65.4394 85.348 65.3482C85.5563 65.2579 85.7136 65.248 85.752 65.248V70.248V75.248C88.2719 75.248 90.5729 74.2689 92.306 72.3914L88.632 69ZM85.752 70.248V65.248H63.672V70.248V75.248H85.752V70.248ZM63.672 70.248L68.3032 68.3632L61.5832 51.8512L56.952 53.736L52.3208 55.6208L59.0408 72.1328L63.672 70.248ZM56.952 53.736L60.7483 50.482C59.7349 49.2997 58.0411 48.064 55.704 48.064V53.064V58.064C55.0551 58.064 54.4609 57.8925 53.9815 57.6344C53.5314 57.392 53.2683 57.1213 53.1557 56.99L56.952 53.736ZM55.704 53.064V48.064H38.424V53.064V58.064H55.704V53.064ZM38.424 53.064V48.064C37.3943 48.064 36.1267 48.2983 34.9305 49.0957C33.7138 49.9069 32.9846 51.0251 32.5904 52.0764L37.272 53.832L41.9536 55.5876C41.7514 56.1269 41.3102 56.8611 40.4775 57.4163C39.6653 57.9577 38.8777 58.064 38.424 58.064V53.064ZM37.272 53.832L32.6666 51.885L27.6746 63.693L32.28 65.64L36.8854 67.587L41.8774 55.779L37.272 53.832ZM32.28 65.64L27.7491 63.5256C27.8174 63.3792 27.8149 63.5383 27.2728 63.8696L29.88 68.136L32.4872 72.4024C34.2491 71.3257 35.8466 69.8208 36.8109 67.7544L32.28 65.64ZM29.88 68.136L27.1637 63.9381C26.8292 64.1546 26.6119 64.192 26.424 64.192V69.192V74.192C28.6681 74.192 30.7548 73.5254 32.5963 72.3338L29.88 68.136ZM26.424 69.192V64.192H7.896V69.192V74.192H26.424V69.192ZM7.896 69.192L12.5001 71.1419L34.2921 19.6859L29.688 17.736L25.0839 15.7861L3.29188 67.2421L7.896 69.192ZM29.688 17.736L34.6879 17.7742L34.7839 5.19816L29.784 5.16L24.7841 5.12183L24.6881 17.6978L29.688 17.736ZM29.784 5.16V10.16H93.336V5.16V0.159998H29.784V5.16ZM82.392 24.36L86.9877 26.3296C87.4042 25.3579 87.7357 24.1115 87.6132 22.7029C87.4838 21.2148 86.8747 19.8851 85.9371 18.8302L82.2 22.152L78.4629 25.4738C78.0373 24.9949 77.7162 24.3212 77.6508 23.5691C77.5923 22.8965 77.7638 22.4661 77.7963 22.3904L82.392 24.36ZM82.2 22.152L86.2962 19.2847C84.5756 16.8267 81.9232 16.192 79.896 16.192V21.192V26.192C79.9732 26.192 79.7464 26.2063 79.3649 26.0474C78.9329 25.8674 78.4596 25.5275 78.1039 25.0193L82.2 22.152ZM79.896 21.192V16.192H41.016V21.192V26.192H79.896V21.192ZM41.016 21.192L38.8006 25.6744L47.1526 29.8024L49.368 25.32L51.5834 20.8376L43.2314 16.7096L41.016 21.192ZM49.368 25.32L44.7684 23.3595L39.7764 35.0715L44.376 37.032L48.9756 38.9925L53.9676 27.2805L49.368 25.32ZM44.376 37.032V42.032H73.176V37.032V32.032H44.376V37.032ZM73.176 37.032V42.032C75.1974 42.032 77.107 41.4835 78.8205 40.4555L76.248 36.168L73.6755 31.8805C73.469 32.0045 73.3306 32.032 73.176 32.032V37.032ZM76.248 36.168L78.898 40.408C80.5786 39.3576 82.0829 37.8702 82.9557 35.8336L78.36 33.864L73.7643 31.8944C73.7849 31.8462 73.8073 31.8061 73.8272 31.7758C73.8467 31.7458 73.8595 31.732 73.8582 31.7334C73.8549 31.737 73.7867 31.8101 73.598 31.928L76.248 36.168ZM78.36 33.864L82.9629 35.8167L86.9949 26.3127L82.392 24.36L77.7891 22.4072L73.7571 31.9112L78.36 33.864Z" fill="black" mask="url(#path-1-outside-1_2004_32)"/>
</svg>
